<svg xmlns="http://www.w3.org/2000/svg" xmlns:xlink="http://www.w3.org/1999/xlink" viewBox="0 0 693.23 924.64"><defs><style>.cls-1{isolation:isolate;}.cls-2,.cls-5{fill:#f6a536;}.cls-2,.cls-3,.cls-6{fill-rule:evenodd;}.cls-3,.cls-4{fill:#fff;}.cls-6{opacity:0.9;mix-blend-mode:multiply;fill:url(#linear-gradient);}</style><linearGradient id="linear-gradient" x1="206.04" y1="579.89" x2="206.04" y2="2051.46" gradientUnits="userSpaceOnUse"><stop offset="0" stop-color="#fff"/><stop offset="1"/></linearGradient></defs><title>Plan de travail 2</title><g class="cls-1"><g id="Layer_1" data-name="Layer 1"><path class="cls-2" d="M353.61,32.29c182,0,329.55,147.51,329.55,329.55a333.67,333.67,0,0,1-13.51,93.63c-67.38,270.61-316,455-316,455s-248.66-184.34-316-455a333.56,333.56,0,0,1-13.5-93.63c0-182,147.5-329.55,329.54-329.55Z"/><path class="cls-3" d="M441.89,217.43s46.32,18.7,67.59,58.41a46.41,46.41,0,0,1,4.53,9.61h0a44.43,44.43,0,0,1,1.45,4.38,53.19,53.19,0,0,1-103,26.43c-.37-1.49-.62-3-1-4.5h0l.14,0a56.61,56.61,0,0,1-.8-10.57c-.32-45.09,31.13-83.73,31.13-83.73Z"/><path class="cls-3" d="M437.35,212.73S419.53,166.12,380.42,144a43.17,43.17,0,0,0-9.45-4.71h0c-1.57-.55-2.95-1-4.52-1.54a53.16,53.16,0,0,0-28.57,102.4c1.53.4,3.06.8,4.55,1.06h0a48.16,48.16,0,0,0,10.55.94c45,1.29,84.36-29.4,84.36-29.4Z"/><path class="cls-3" d="M447.11,214.93a142,142,0,0,1-34,15.54,158.78,158.78,0,0,1,17.57,18.47,139.62,139.62,0,0,1,16.47-34Zm-59.44,20.31a76.76,76.76,0,0,1-30.14-3.84l-2,1c22.41,11.36,52,33.26,71.6,74.65a16.1,16.1,0,0,1,1.47-2.91,74.7,74.7,0,0,1-3.3-28.94,140.19,140.19,0,0,0-37.66-39.94ZM335,244.46a126.42,126.42,0,0,0-11.74,9.19c24,10.8,60,34.52,81.63,84.76,3.11-3.33,6.25-7.15,9.46-11.3-20.65-53.33-58.61-74.66-79.36-82.65Zm-25.35,24.73a55.34,55.34,0,0,0-5.92,11.5c22.7,11.29,53.29,33.55,73.46,76.39A54.57,54.57,0,0,0,389,351.53c-20.61-53.18-58.71-74.47-79.28-82.35Zm-8.51,32.29c1.41,12.32,8.08,24.71,19.88,36.74,11.2,11.54,23.12,18.47,35,20.48-16-30.13-37.37-47.46-54.92-57.22Z"/><polygon class="cls-3" points="275.59 375.92 295.02 362.7 314.29 349.51 308.53 343.7 302.9 337.85 289.25 356.89 275.59 375.92"/><path class="cls-3" d="M484.94,170.26s-22.82-28.38-60.55,3c0,0,12.29,19.51,21.8,35,15.32,9.7,34.46,22.53,34.46,22.53,32.16-37.09,4.29-60.52,4.29-60.52Z"/><path class="cls-4" d="M461.5,179.6c.15,0,15.61-22.54,1.34-48.52-4.71-8.46,5-13.95,9.94-5.08,17.73,32.06-7.54,57.08-7.69,57.12Z"/><path class="cls-4" d="M475.06,193.55c.11-.19,22.87-15.22,48.54-.41,8.41,5,14.19-4.59,5.45-9.64-31.68-18.5-57.18,6.27-57.33,6.31Z"/><path class="cls-5" d="M540,660.58c-14.27-.32-26-2.47-34.87-8.27h0l10.14-15.15c3.64,2.59,12.72,5.07,25,5.18h.17l-.25,18.24Zm275.8-291.84h0m19.3-30.57h0"/><path class="cls-4" d="M214.1,502.15l-16.88-3.74A199.46,199.46,0,0,0,192.8,529l17.26,1.09A182.24,182.24,0,0,1,214.1,502.15Zm8-27.38a265,265,0,0,1,11.27-26.4l-15.53-7.62a282.67,282.67,0,0,0-12,28.14Zm-4.26-34h0ZM213,619.39h0A174.74,174.74,0,0,0,230.78,645l13.3-11.06a156.93,156.93,0,0,1-16-23Zm-2.25-61.23-17.18,2a157.24,157.24,0,0,0,6.74,30.58l16.43-5.39A139.23,139.23,0,0,1,210.77,558.17Zm217.68-89.38-.63-17.28a92.27,92.27,0,0,0-31.8,6.83l6.57,16A75.31,75.31,0,0,1,428.45,468.79Zm60.36,2.33h0A89.35,89.35,0,0,0,460,455.86l-5.22,16.48A72.28,72.28,0,0,1,478,484.65ZM520,527.28a88.27,88.27,0,0,0-10-31.07l-15.17,8.32a70.77,70.77,0,0,1,8,25Zm-164.29,36.3c-.12-2.07.41-21.06,1.5-27.6l-17.06-2.84c-1.26,7.54-1.84,29-1.71,31.44Zm24.89-74.93-12-12.46h0a91.8,91.8,0,0,0-19,26.41l15.58,7.51A74.44,74.44,0,0,1,380.61,488.64ZM262.46,401.21c.79-1,1.17-1.47,1.17-1.47l-13.33-11a248.71,248.71,0,0,0-17.67,25.34l14.71,9.1c4.61-7.45,8.73-13.36,11.67-17.38C260.49,403.77,261.66,402.23,262.46,401.21ZM495.77,583.59l16.2,6.06h0a140.35,140.35,0,0,0,7.7-30.54l-17.14-2.31A122.78,122.78,0,0,1,495.77,583.59Zm-12.41,24.88a150.21,150.21,0,0,1-17.14,22.14l12.66,11.79A167.43,167.43,0,0,0,498,617.71Zm-4.48,33.93h0Zm34.94,20q-6.07,0-12-.21l-.63,17.28h0q6.28.22,12.67.22c5.85,0,16.73-8.57,22.67-8.85h0C530.81,671.11,519.39,662.4,513.82,662.4Zm-68.49-13a170.86,170.86,0,0,1-23.8,15.11l8,15.31q7.12-3.73,13.89-8.06a259,259,0,0,0,27.31,5.12l2.3-17.14c-7.95-1.07-15.67-2.46-23.08-4.19Zm-61.41-3.56a149.27,149.27,0,0,0,27.43,15.28l6.86-15.86a132.6,132.6,0,0,1-24.27-13.5ZM344.8,596h0Zm-91.93,71.1a148.63,148.63,0,0,0,26.22,17.3L287,669a131.35,131.35,0,0,1-23.17-15.29Zm55.57,28.6h0a151.62,151.62,0,0,0,31,4.82l.88-17.27a134.19,134.19,0,0,1-27.46-4.27Zm59.81-13.73L370.65,699h0A177,177,0,0,0,401,692l-5.38-16.43A159.58,159.58,0,0,1,368.24,681.93ZM361,590,344.81,596a100.23,100.23,0,0,0,15.81,28.1l13.53-10.78A82.61,82.61,0,0,1,361,590Z"/><path class="cls-6" d="M58.48,522.62c87,233.5,295.14,387.82,295.14,387.82V449.66Z"/></g></g></svg>