<svg id="Calque_1" data-name="Calque 1" xmlns="http://www.w3.org/2000/svg" viewBox="0 0 199.67 187.33"><defs><style>.cls-1{fill:#de502f;}</style></defs><title>Plan de travail 1</title><path class="cls-1" d="M72.21,132.89a1.51,1.51,0,0,0,.08-.19,1.37,1.37,0,0,0-.71-1.79,1.61,1.61,0,0,0-2,.61l0,.11a1.57,1.57,0,0,0,0,1,1.55,1.55,0,0,0,.7.9,1.48,1.48,0,0,0,1.14.16A1.43,1.43,0,0,0,72.21,132.89Z"/><path class="cls-1" d="M67.32,140.43a1.56,1.56,0,0,0,.25-.44,1.4,1.4,0,0,0-.49-1.64,1.56,1.56,0,0,0-2.09.2,1.19,1.19,0,0,0-.2.34,1.44,1.44,0,0,0-.07.65,1.65,1.65,0,0,0,.51,1.07,1.4,1.4,0,0,0,1,.38A1.6,1.6,0,0,0,67.32,140.43Z"/><path class="cls-1" d="M60.86,146.77a1.67,1.67,0,0,0,.53-.71,1.23,1.23,0,0,0,.07-.31,1.43,1.43,0,0,0-.36-1.08,1.61,1.61,0,0,0-1.05-.52,1.37,1.37,0,0,0-1,.25,1.44,1.44,0,0,0-.44.62,1.63,1.63,0,0,0,.2,1.47,1.36,1.36,0,0,0,.93.59A1.41,1.41,0,0,0,60.86,146.77Z"/><path class="cls-1" d="M53.95,150.61a1.35,1.35,0,0,0-.08-1.12,1.56,1.56,0,0,0-1.94-.76,1.43,1.43,0,0,0-.73.81,1.74,1.74,0,0,0,0,1.16,1.34,1.34,0,0,0,.75.79,1.45,1.45,0,0,0,1.2,0A1.49,1.49,0,0,0,53.95,150.61Z"/><path class="cls-1" d="M43.22,153.7a1.55,1.55,0,0,0,2.39-.6,1.29,1.29,0,0,0,0-.76A1.6,1.6,0,0,0,44,151.07a1.49,1.49,0,0,0-1.14,1,1.82,1.82,0,0,0-.11.69A1.28,1.28,0,0,0,43.22,153.7Z"/><path class="cls-1" d="M36.46,153.54a1.24,1.24,0,0,0,.44-.58,1.5,1.5,0,0,0,.08-.36,1.81,1.81,0,0,0-.32-1.17,1.25,1.25,0,0,0-1.77-.38,1.88,1.88,0,0,0-.77,1h0a1.25,1.25,0,0,0,.1,1.06,1.53,1.53,0,0,0,1.05.71A1.47,1.47,0,0,0,36.46,153.54Z"/><path class="cls-1" d="M28.8,149.76a1.94,1.94,0,0,0,.09-.2,1.77,1.77,0,0,0,.07-1,1.33,1.33,0,0,0-.47-.81l-.06,0-.05,0a1.63,1.63,0,0,0-2,.43,1.17,1.17,0,0,0-.25.39,1.53,1.53,0,0,0,.56,1.65,1.66,1.66,0,0,0,1.25.29A1.29,1.29,0,0,0,28.8,149.76Z"/><path class="cls-1" d="M22.43,143.88a1.81,1.81,0,0,0,.56-.77,1.58,1.58,0,0,0,0-1.23,1.64,1.64,0,0,0-2.07-.49,1.3,1.3,0,0,0-.67.74,1.43,1.43,0,0,0,.2,1.33,1.36,1.36,0,0,0,1,.68A1.31,1.31,0,0,0,22.43,143.88Z"/><path class="cls-1" d="M19.86,135a1.18,1.18,0,0,0,.06-.68,1.57,1.57,0,0,0-1.75-1.14,1.32,1.32,0,0,0-.94.55,1.71,1.71,0,0,0-.21.39,1.22,1.22,0,0,0,0,.79,1.57,1.57,0,0,0,.74,1,1.24,1.24,0,0,0,1,.1A1.83,1.83,0,0,0,19.86,135Z"/><path class="cls-1" d="M19.29,126.37a1.09,1.09,0,0,0,.07-.33,1.37,1.37,0,0,0-.11-.55,1.33,1.33,0,0,0-.24-.44,1.67,1.67,0,0,0-1-.57,1.39,1.39,0,0,0-1.08.29,1.66,1.66,0,0,0-.37.42l0,.12a1.68,1.68,0,0,0-.1.51,1.55,1.55,0,0,0,.41,1.18,1.27,1.27,0,0,0,1,.39A1.71,1.71,0,0,0,19.29,126.37Z"/><path class="cls-1" d="M21,117.85a1.38,1.38,0,0,0-.14-1A1.56,1.56,0,0,0,20,116a1.41,1.41,0,0,0-1.11,0,1.64,1.64,0,0,0-.77,1h0a1.39,1.39,0,0,0,1,1.81A1.59,1.59,0,0,0,21,117.85Z"/><path class="cls-1" d="M24.39,110.2a1.25,1.25,0,0,0,.11-.21,1.58,1.58,0,0,0-.66-1.76,1.33,1.33,0,0,0-1-.21,1.59,1.59,0,0,0-1,.68,2,2,0,0,0-.11.24,1.43,1.43,0,0,0,.66,1.8A1.54,1.54,0,0,0,24.39,110.2Z"/><path class="cls-1" d="M29.36,103.56a1.55,1.55,0,0,0-.07-2.1,1.42,1.42,0,0,0-1.06-.44,1.37,1.37,0,0,0-1,.47,1.73,1.73,0,0,0-.34.55,1.33,1.33,0,0,0,.4,1.54A1.58,1.58,0,0,0,29.36,103.56Z"/><path class="cls-1" d="M36.14,97.35A1.67,1.67,0,0,0,36,95.86a1.33,1.33,0,0,0-.89-.59,1.55,1.55,0,0,0-1.2.3,1.32,1.32,0,0,0-.49.63,1.44,1.44,0,0,0,.24,1.42,1.55,1.55,0,0,0,2.08.32A1.27,1.27,0,0,0,36.14,97.35Z"/><path class="cls-1" d="M43.48,92.59a1.53,1.53,0,0,0-.08-1.24,1.48,1.48,0,0,0-.9-.74,1.37,1.37,0,0,0-1.1.14,1.53,1.53,0,0,0-.69.8,1.39,1.39,0,0,0,.12,1.2,1.53,1.53,0,0,0,2,.63A1.56,1.56,0,0,0,43.48,92.59Z"/><path class="cls-1" d="M78.58,144.25q.46-.66.9-1.33l1.08-1.66L82,144.37a33.54,33.54,0,0,0,60.71-28.53l-1.46-3.1,2,.23,1.6.16c21.26,1.8,40.55-9,46.92-26.27h0a34,34,0,0,0,2-8.89c.89-10.5-3.07-20.75-11.16-28.87a49.67,49.67,0,0,0-31.14-14c-12.72-1.08-26.72,2.68-41.6,11.18l-.78.45-.59-.68A33.54,33.54,0,0,0,85.77,34.67l-1.18-.09,2.11-14a1.09,1.09,0,0,0-.91-1.24,1.09,1.09,0,0,0-1.18.7,1.13,1.13,0,0,0-.06.22l-2.15,14.3-.9,0A33.59,33.59,0,0,0,58.56,45.4l-.61.66-12.4-7.47a1.09,1.09,0,1,0-1.13,1.87l12.12,7.31-.68,1a33.51,33.51,0,0,0-5.75,24.71l.14.89-.84.32c-16,6-27.85,14.4-35.14,24.88A53,53,0,0,0,8,111.45c-6.93,18.79-2,38.08,12.25,48,8.65,6,19.51,7.72,30.58,4.77A49.68,49.68,0,0,0,78.58,144.25Zm62.19-18.46A28.86,28.86,0,0,1,139.3,140a28.73,28.73,0,0,1-47.81,9.8l-2-2.13,2.92.28a49.27,49.27,0,0,0,46.36-22.63l1.58-2.48Zm-2.4-7.9c.26.56.5,1.12.72,1.68l.18.46-.23.44a47.11,47.11,0,0,1-50.67,24.75l-.49-.09-.25-.43c-.47-.79-.89-1.59-1.26-2.38l-2.81-6-.19-.55.23-.47.33-.77.83.11a49.31,49.31,0,0,0,48.18-23.05l.44-.71,2,.56ZM121.9,106.2a71.42,71.42,0,0,0,8,3.55l1.29.47-.75,1.16a47.17,47.17,0,0,1-44.31,21.26l-1.4-.14.48-1.33a70.73,70.73,0,0,0,2.49-8.6l.18-.79.81-.07a49.3,49.3,0,0,0,31.86-15.29l.57-.6ZM118,104l1.22.72-1,1a47.08,47.08,0,0,1-28.37,13.66l-1.44.16.24-1.43c2.33-14,1-27.92-.52-37.15l-.63-3.84L90,80.09C96.09,87.08,105.86,96.91,118,104Zm33-64.16a44.89,44.89,0,0,1,28.14,12.61c7.07,7.1,10.54,16,9.77,25.07a29.22,29.22,0,0,1-1.7,7.64c-5.53,15-23.2,24.73-42,23.14-28-2.37-51-30.11-57.33-38.56L87.3,69l.73-.68C95.9,61.05,123.67,37.56,151,39.87ZM54.69,71.42A28.72,28.72,0,0,1,93,41.09a28.39,28.39,0,0,1,11,7.17l.92,1-1.11.72A138.9,138.9,0,0,0,82.9,66.54l-.28.27-.39,0a138.84,138.84,0,0,0-26.12,5.49l-1.27.4ZM23,155.5c-12.43-8.65-16.64-25.69-10.48-42.4a48.15,48.15,0,0,1,5.67-10.85c15.65-22.49,51.48-28.9,62.09-30.33l1-.13.23,1c1.85,7.79,7.26,34.94-.89,57.06a51.78,51.78,0,0,1-6,11.68,44.89,44.89,0,0,1-25,18.07C40,162.15,30.5,160.7,23,155.5Z"/><path class="cls-1" d="M129.22,52.29a1.6,1.6,0,0,0,0-1.08,1.41,1.41,0,0,0-.75-.83,1.49,1.49,0,0,0-2,.83,1.42,1.42,0,0,0,0,1.07,1.52,1.52,0,0,0,1.91.86A1.43,1.43,0,0,0,129.22,52.29Z"/><path class="cls-1" d="M137.51,49.62a1.66,1.66,0,0,0,.07-.87,1.38,1.38,0,0,0-.62-.92,1.51,1.51,0,0,0-2.2.73,1.39,1.39,0,0,0,0,.88,1.54,1.54,0,0,0,1.78,1.1A1.45,1.45,0,0,0,137.51,49.62Z"/><path class="cls-1" d="M146.11,48.24a1.69,1.69,0,0,0,.11-.58,1.34,1.34,0,0,0-.42-1,1.48,1.48,0,0,0-1.12-.4,1.45,1.45,0,0,0-1.3.94,1.36,1.36,0,0,0-.07.65,1.56,1.56,0,0,0,1.55,1.41A1.49,1.49,0,0,0,146.11,48.24Z"/><path class="cls-1" d="M153.2,49.67a1.53,1.53,0,0,0,1.63-1,1.75,1.75,0,0,0,.06-.21,1.35,1.35,0,0,0-.2-1.07,1.46,1.46,0,0,0-1-.63,1.43,1.43,0,0,0-1.61.89A1.35,1.35,0,0,0,152,48,1.57,1.57,0,0,0,153.2,49.67Z"/><path class="cls-1" d="M160.47,50A1.47,1.47,0,1,0,163.19,51l.06-.13a1.42,1.42,0,0,0-.87-1.8,1.48,1.48,0,0,0-1.16,0,1.38,1.38,0,0,0-.75.83Z"/><path class="cls-1" d="M168.28,53.8a1.72,1.72,0,0,0-.14.29,1.54,1.54,0,0,0,.46,1.78,1.57,1.57,0,0,0,2.06-.37,1.3,1.3,0,0,0,.24-.4,1.43,1.43,0,0,0-.56-1.66,1.49,1.49,0,0,0-1.18-.26A1.32,1.32,0,0,0,168.28,53.8Z"/><path class="cls-1" d="M176.69,61.77a1.27,1.27,0,0,0,.52-.64,1.49,1.49,0,0,0-.25-1.43,1.51,1.51,0,0,0-1.09-.59,1.3,1.3,0,0,0-1,.37,1.76,1.76,0,0,0-.43.66,1.47,1.47,0,0,0,.17,1.41A1.6,1.6,0,0,0,176.69,61.77Z"/><path class="cls-1" d="M180.41,69.62a1.26,1.26,0,0,0,.95-.83,1.55,1.55,0,0,0,0-1,1.52,1.52,0,0,0-.83-.94,1.26,1.26,0,0,0-1,0,1.82,1.82,0,0,0-.92,1,1.34,1.34,0,0,0,0,.87A1.64,1.64,0,0,0,180.41,69.62Z"/><path class="cls-1" d="M182.38,77.39a1.74,1.74,0,0,0,.1-.45,1.52,1.52,0,0,0-.41-1.2,1.23,1.23,0,0,0-1-.38,1.72,1.72,0,0,0-1.54,1,1.1,1.1,0,0,0-.07.3,1.64,1.64,0,0,0,1.37,1.59A1.32,1.32,0,0,0,182.38,77.39Z"/><path class="cls-1" d="M179.85,85.82a1.59,1.59,0,0,0,.09-.21,1.5,1.5,0,0,0,0-1.11,1.24,1.24,0,0,0-.71-.68,1.64,1.64,0,0,0-2,.6,1,1,0,0,0-.06.14,1.68,1.68,0,0,0,.69,1.86,1.25,1.25,0,0,0,1,.19A1.51,1.51,0,0,0,179.85,85.82Z"/><path class="cls-1" d="M174.18,93a1.57,1.57,0,0,0,.42-.62,1.32,1.32,0,0,0-.35-1.47,1.6,1.6,0,0,0-2.09-.12,1.29,1.29,0,0,0-.33.51,1.72,1.72,0,0,0,.26,1.59,1.3,1.3,0,0,0,.93.52A1.49,1.49,0,0,0,174.18,93Z"/><path class="cls-1" d="M165.43,98.21a1.47,1.47,0,0,0,1.2-.07,1.5,1.5,0,0,0,.76-.83,1.32,1.32,0,0,0-.11-1.16,1.57,1.57,0,0,0-2-.7,1.39,1.39,0,0,0-.67.78,1.7,1.7,0,0,0,0,1.21A1.31,1.31,0,0,0,165.43,98.21Z"/><path class="cls-1" d="M156.42,99.13a1.71,1.71,0,0,0-.09.83,1.35,1.35,0,0,0,.57.93,1.53,1.53,0,0,0,2.27-.7,1.31,1.31,0,0,0,0-.85,1.56,1.56,0,0,0-1.75-1.15A1.47,1.47,0,0,0,156.42,99.13Z"/><path class="cls-1" d="M147.75,100.07a1.8,1.8,0,0,0-.1.46,1.35,1.35,0,0,0,.36,1,1.48,1.48,0,0,0,1.1.47,1.45,1.45,0,0,0,1.4-.93,1.31,1.31,0,0,0,.08-.55A1.55,1.55,0,0,0,149.12,99,1.5,1.5,0,0,0,147.75,100.07Z"/><path class="cls-1" d="M140.8,98.09a1.53,1.53,0,0,0-1.73,1l0,.11a1.37,1.37,0,0,0,.14,1.1,1.47,1.47,0,0,0,1,.69,1.44,1.44,0,0,0,1.69-.87,1.42,1.42,0,0,0,.07-.27A1.55,1.55,0,0,0,140.8,98.09Z"/></svg>