<svg id="Calque_1" data-name="Calque 1" xmlns="http://www.w3.org/2000/svg" viewBox="0 0 199.67 187.33"><defs><style>.cls-1{fill:#de502f;}</style></defs><title>Plan de travail 1</title><path class="cls-1" d="M97.36,4.92a2.39,2.39,0,0,0-1,.23l-85.44,40a2.41,2.41,0,0,0-1.16,3.2l5.82,12.44a2.4,2.4,0,0,0,3.2,1.16l18.56-8.69,0,18.1a.88.88,0,0,0,0,.12l0,.26,0,.36.08,51.77v.28a.37.37,0,0,1,0,.1h0l.06,37.46a2.41,2.41,0,0,0,2.41,2.4l12,0,0,9.92A1.09,1.09,0,0,0,53,175.1l25.14,0A1.09,1.09,0,0,0,79.2,174l0-9.92L116,164l0,9.92a1.09,1.09,0,0,0,1.09,1.09l25.14,0a1.09,1.09,0,0,0,1.09-1.09l0-9.92,12,0a2.41,2.41,0,0,0,2.4-2.41l-.06-37.39,0-.11v-.16a.35.35,0,0,1,0-.1h0l-.08-51.84a1.07,1.07,0,0,0,0-.12l0-.25,0-.25a.78.78,0,0,0,0-.12l0-18.1,18.59,8.63a2.4,2.4,0,0,0,3.19-1.17l5.78-12.46a2.4,2.4,0,0,0-1.17-3.19L98.37,5.14A2.37,2.37,0,0,0,97.36,4.92ZM77,172.88l-23,0v-8.83l23,0Zm64.17-.1-23,0V164l23,0Zm11.71-13.66-110.6.18-.05-33,110.6-.18Zm-.06-37.76-110.6.18-.05-32.66,110.6-.18Zm-.06-37.46-110.6.18,0-10.33,110.6-.18Zm0-15.14-110.61.18,0-17.94L97.39,25.12l55.34,25.7ZM176,56.32l-77.58-36a2.4,2.4,0,0,0-2,0L18.9,56.57l-3.78-8.08L97.36,10l82.37,38.25Z"/><path class="cls-1" d="M80.16,38.56c0,9.95,8.79,9.93,17.27,9.92s17.25,0,17.24-10a1.09,1.09,0,0,0-1.09-1.09l-32.32.05A1.09,1.09,0,0,0,80.16,38.56Zm32.39,1-.29,1.34c-1.11,5.09-6.11,5.35-14.83,5.36S83.7,46.07,82.57,41l-.29-1.34Z"/><path class="cls-1" d="M97.52,106.21c8.48,0,17.25,0,17.24-10a1.09,1.09,0,0,0-1.09-1.09l-32.32.05a1.09,1.09,0,0,0-1.09,1.09C80.27,106.24,89,106.22,97.52,106.21Zm15.12-8.88-.29,1.34c-1.12,5.09-6.11,5.35-14.83,5.36s-13.72-.23-14.85-5.32l-.3-1.34Z"/><path class="cls-1" d="M97.58,144c8.48,0,17.25,0,17.24-10a1.09,1.09,0,0,0-1.09-1.09L81.4,133A1.09,1.09,0,0,0,80.31,134C80.33,144,89.1,144,97.58,144Zm15.12-8.88-.29,1.34c-1.11,5.09-6.11,5.35-14.83,5.36s-13.72-.23-14.85-5.31l-.3-1.34Z"/></svg>