<svg id="Layer_1" data-name="Layer 1" xmlns="http://www.w3.org/2000/svg" xmlns:xlink="http://www.w3.org/1999/xlink" viewBox="0 0 114.95 111.97"><defs><style>.cls-1{fill:#ffd32e;}.cls-2{fill:url(#GradientFill_1);}.cls-3{fill:url(#GradientFill_1-2);}.cls-4{fill-rule:evenodd;fill:url(#GradientFill_1-3);}</style><linearGradient id="GradientFill_1" x1="65.41" y1="74.45" x2="51.99" y2="63.81" gradientUnits="userSpaceOnUse"><stop offset="0" stop-color="#ffd334"/><stop offset="1" stop-color="#da7d2a"/></linearGradient><linearGradient id="GradientFill_1-2" x1="87.5" y1="32.82" x2="71.41" y2="32.82" xlink:href="#GradientFill_1"/><linearGradient id="GradientFill_1-3" x1="22.24" y1="60.59" x2="41.45" y2="71.68" xlink:href="#GradientFill_1"/></defs><title>Plan de travail 2</title><path class="cls-1" d="M82.87,23.19a5.78,5.78,0,0,1,2.9.8l7.52,4.34,7.52,4.34a5.67,5.67,0,0,1,2.9,5V55a5.67,5.67,0,0,1-2.9,5L93.29,64.4h0l-7.52,4.34a5.78,5.78,0,0,1-2.9.8V60a5.78,5.78,0,0,0,2.9-.8l3.38-1.95h0l3.36-1.94a5.67,5.67,0,0,0,2.9-5V42.46a5.67,5.67,0,0,0-2.9-5l-3.38-2-3.38-2a5.78,5.78,0,0,0-2.9-.8ZM52.46,15.24l3.54,2h0l11.4,6.58a5.66,5.66,0,0,1,2.9,5v.67l2.13-1.23L80,24a5.78,5.78,0,0,1,2.9-.8v9.55a5.78,5.78,0,0,0-2.9.8l-3.38,2-3.38,2a5.67,5.67,0,0,0-2.9,5v7.83a5.67,5.67,0,0,0,2.9,5l3.36,1.94h0L80,59.2a5.77,5.77,0,0,0,2.9.8v9.55a5.78,5.78,0,0,1-2.9-.8l-7.52-4.34h0L69.2,62.52a5.67,5.67,0,0,0-5.8,0l-2.69,1.55.76.44,6.15,3.54a5.66,5.66,0,0,1,2.9,5V87.21a5.67,5.67,0,0,1-2.9,5l-6.15,3.55-6.12,3.53a5.78,5.78,0,0,1-2.9.8V90.59a5.78,5.78,0,0,0,2.9-.8l2-1.16,2-1.14a5.67,5.67,0,0,0,2.9-5V77.84a5.66,5.66,0,0,0-2.9-5l-2-1.15h0l-2-1.15a5.78,5.78,0,0,0-2.9-.8V59.3l6.67-3.85a5.67,5.67,0,0,0,2.9-5V33.65a5.66,5.66,0,0,0-2.9-5l-6.67-3.85Zm-7.84-4.53,7.84,4.53v9.54l-.58-.34h0l-7.26-4.19a5.66,5.66,0,0,0-5.8,0l-7.26,4.19h0l-7.25,4.19a5.66,5.66,0,0,0-2.9,5V50.43a5.66,5.66,0,0,0,2.9,5l7.25,4.19h0L41.71,65.5l1.71-1h0l7-4,1.47-.85h0l.58-.34V69.71a5.77,5.77,0,0,0-2.9.8l-2,1.15h0l-2,1.15a5.67,5.67,0,0,0-2.9,5v4.62a5.67,5.67,0,0,0,2.9,5l2,1.15h0l2,1.15a5.77,5.77,0,0,0,2.9.8v9.53a5.78,5.78,0,0,1-2.9-.8l-6.12-3.53h0l-6.13-3.54a5.66,5.66,0,0,1-2.9-5V74.15a5.66,5.66,0,0,0-2.9-5l-4.05-2.34h0L16,60.21a5.67,5.67,0,0,1-2.9-5V28.89a5.67,5.67,0,0,1,2.9-5l11.4-6.58h0l11.38-6.57A5.66,5.66,0,0,1,44.62,10.72Z"/><path class="cls-2" d="M60.71,64.08l.76.44,6.15,3.54a5.68,5.68,0,0,1,2.55,3l-7.94,6.59a5.66,5.66,0,0,0-2.9-4.82l-2-1.15h0l-2-1.15a5.65,5.65,0,0,0-5.51-.16Z"/><path class="cls-3" d="M70.31,29.56l2.13-1.23L80,24a5.67,5.67,0,0,1,5.8,0l1.57.91v9.55l-1.57-.91a5.67,5.67,0,0,0-5.8,0l-3.38,2-3.38,2a5.67,5.67,0,0,0-2.9,5Z"/><path class="cls-4" d="M41.71,65.5,31.56,59.65h0l-7.25-4.19a6,6,0,0,1-1.19-.89l-4.71,7,9,5.2h0l4.05,2.34a5.66,5.66,0,0,1,2.9,5V73.08a5.67,5.67,0,0,1,2.9-5Z"/></svg>