<svg id="Calque_1" data-name="Calque 1" xmlns="http://www.w3.org/2000/svg" viewBox="0 0 167.67 187.33"><defs><style>.cls-1{fill:#de502f;}</style></defs><title>Plan de travail 1</title><path class="cls-1" d="M131.4,40.4a2.4,2.4,0,0,0,2.4-2.4V11.72a2.41,2.41,0,0,0-2.4-2.41H37.54a2.41,2.41,0,0,0-2.4,2.4V38a2.41,2.41,0,0,0,2.4,2.4ZM39.94,14.12H129V35.59h-5.87V21.46a1.09,1.09,0,0,0-2.18,0V35.59h-7.21V21.46a1.09,1.09,0,0,0-2.18,0V35.59h-7.21V21.46a1.09,1.09,0,0,0-2.18,0V35.59H94.95V21.46a1.09,1.09,0,0,0-2.18,0V35.59H85.55V21.46a1.09,1.09,0,0,0-2.18,0V35.59H76.16V21.46a1.09,1.09,0,0,0-2.18,0V35.59H66.77V21.45a1.09,1.09,0,0,0-2.18,0V35.59H57.38V21.45a1.09,1.09,0,0,0-2.18,0V35.59H48V21.45a1.09,1.09,0,0,0-2.18,0V35.59H39.94Z"/><path class="cls-1" d="M16.12,73.74c-7.57,31.38,1.42,68.61,23.46,97.15.12.16.32.44.56.79l.15.22c3.61,5.2,5.72,7.68,8,7.68h72.31c2.28,0,4.4-2.47,8-7.67l.13-.18c.26-.38.46-.67.59-.84,22-28.54,31-65.76,23.47-97.14-1.8-7.44-10.17-25.3-20.27-25.3H36.39C26.3,48.44,17.92,66.3,16.12,73.74ZM36.39,53.25h96.14c6.75,0,14.08,15.34,15.6,21.62,7.23,30-1.43,65.67-22.6,93.08-.18.23-.48.66-.86,1.21a39.55,39.55,0,0,1-4.11,5.31l-.32.3H48.68l-.32-.3a39.62,39.62,0,0,1-4.11-5.31c-.38-.56-.69-1-.86-1.22-21.17-27.41-29.83-63.08-22.59-93.09C22.31,68.59,29.65,53.25,36.39,53.25Z"/><path class="cls-1" d="M45.17,136.41l19,10.85a2.43,2.43,0,0,0,1.19.32,2.4,2.4,0,0,0,1.2-.32L84.41,137l17.83,10.17a2.4,2.4,0,0,0,2.39,0l19.07-10.95a2.41,2.41,0,0,0,1.21-2.08l.06-21.8a2.4,2.4,0,0,0-1.21-2.09L105.95,100.1,106,79.69a2.4,2.4,0,0,0-1.21-2.09l-19-10.86a2.41,2.41,0,0,0-2.39,0L64.3,77.7a2.41,2.41,0,0,0-1.2,2.08L63,100.19,45.22,110.43A2.41,2.41,0,0,0,44,112.5L44,134.31A2.41,2.41,0,0,0,45.17,136.41Zm75-22.66,0,19-16.68,9.57-16.56-9.45,0-19.07,16.63-9.55ZM67.9,81.17,84.58,71.6l16.61,9.48,0,19-16.63,9.55-16.66-9.51ZM48.82,113.9l16.63-9.55,16.61,9.48,0,19L65.38,142.4l-16.61-9.48Z"/><path class="cls-1" d="M91.66,130.49l8.21,4.1a1.07,1.07,0,0,0,.49.12,1.09,1.09,0,0,0,.49-2.06l-7.61-3.8,0-7.57a1.09,1.09,0,1,0-2.18,0l0,8.25A1.09,1.09,0,0,0,91.66,130.49Z"/><path class="cls-1" d="M62.79,132.71l-7.61-3.8,0-7.57a1.09,1.09,0,1,0-2.18,0l0,8.25a1.08,1.08,0,0,0,.6,1l8.21,4.11a1.1,1.1,0,0,0,.48.11,1.09,1.09,0,0,0,.49-2.06Z"/><path class="cls-1" d="M81.88,100l-7.61-3.81,0-7.57a1.09,1.09,0,0,0-2.18,0l0,8.25a1.09,1.09,0,0,0,.6,1l8.21,4.11a1.11,1.11,0,0,0,.49.12,1.09,1.09,0,0,0,.49-2.07Z"/></svg>