<svg id="Layer_1" data-name="Layer 1" xmlns="http://www.w3.org/2000/svg" xmlns:xlink="http://www.w3.org/1999/xlink" viewBox="0 0 114.95 111.97"><defs><style>.cls-1{fill:#ffd32e;}.cls-2{fill:url(#GradientFill_1);}.cls-3{fill:url(#GradientFill_1-2);}.cls-4{fill-rule:evenodd;fill:url(#GradientFill_1-3);}</style><linearGradient id="GradientFill_1" x1="65.41" y1="74.45" x2="51.99" y2="63.81" gradientTransform="translate(117.39 109.44) rotate(179.42)" gradientUnits="userSpaceOnUse"><stop offset="0" stop-color="#ffd334"/><stop offset="1" stop-color="#da7d2a"/></linearGradient><linearGradient id="GradientFill_1-2" x1="87.5" y1="32.82" x2="71.41" y2="32.82" xlink:href="#GradientFill_1"/><linearGradient id="GradientFill_1-3" x1="22.24" y1="60.59" x2="41.45" y2="71.68" xlink:href="#GradientFill_1"/></defs><title>Plan de travail 2</title><path class="cls-1" d="M34.29,87.09a5.78,5.78,0,0,1-2.91-.77l-7.56-4.27-7.57-4.27a5.67,5.67,0,0,1-3-5l-.09-8.67-.09-8.66A5.67,5.67,0,0,1,16,50.41L23.46,46h0l7.48-4.42a5.78,5.78,0,0,1,2.89-.83l.1,9.55a5.78,5.78,0,0,0-2.89.83l-3.36,2h0l-3.34,2a5.67,5.67,0,0,0-2.85,5.05l0,3.92,0,3.91a5.67,5.67,0,0,0,3,5l3.4,1.92,3.4,1.92a5.78,5.78,0,0,0,2.91.77Zm30.49,7.64-3.56-2h0L49.74,86.25a5.66,5.66,0,0,1-3-5v-.67l-2.12,1.25-7.48,4.42a5.78,5.78,0,0,1-2.89.83l-.1-9.54a5.78,5.78,0,0,0,2.89-.83l3.36-2,3.36-2a5.67,5.67,0,0,0,2.85-5.05l0-3.91,0-3.92a5.67,5.67,0,0,0-3-5L40.24,53h0L36.83,51a5.77,5.77,0,0,0-2.91-.77l-.1-9.55a5.78,5.78,0,0,1,2.91.77l7.56,4.27h0l3.27,1.84a5.67,5.67,0,0,0,5.8-.06L56,46l-.76-.43-6.19-3.48a5.66,5.66,0,0,1-3-5L46.06,30,46,22.95a5.67,5.67,0,0,1,2.85-5.05L55,14.28,61,10.69a5.78,5.78,0,0,1,2.89-.83l.1,9.53a5.78,5.78,0,0,0-2.89.83l-2,1.18-2,1.16a5.67,5.67,0,0,0-2.85,5.05l0,2.32,0,2.31a5.66,5.66,0,0,0,3,5l2,1.13h0l2,1.13a5.78,5.78,0,0,0,2.91.77l.11,10.41-6.63,3.92a5.67,5.67,0,0,0-2.85,5.05l0,4.06,0,4.33L55,73.34l0,2.38v.69a5.66,5.66,0,0,0,3,5l6.71,3.78Zm7.88,4.45-7.88-4.45-.1-9.53.59.33h0l7.3,4.12a5.66,5.66,0,0,0,5.8-.06l7.21-4.26h0l7.21-4.26A5.66,5.66,0,0,0,95.64,76l-.09-8.39-.09-8.39a5.66,5.66,0,0,0-3-5l-7.3-4.12h0L75,44.36l-1.7,1h0l-6.92,4.09-1.47.87h0l-.58.34-.11-10.41a5.77,5.77,0,0,0,2.89-.83l2-1.17h0l2-1.17A5.67,5.67,0,0,0,73.93,32l0-2.31,0-2.31a5.67,5.67,0,0,0-3-5l-2-1.13h0l-2-1.13A5.77,5.77,0,0,0,64,19.39l-.1-9.53a5.78,5.78,0,0,1,2.91.77L73,14.1h0l6.17,3.48a5.66,5.66,0,0,1,2.95,5l.07,7.07.06,6a5.66,5.66,0,0,0,3,5l4.07,2.3h0l11.46,6.46a5.67,5.67,0,0,1,3,5l.13,13.15L104,80.68a5.67,5.67,0,0,1-2.85,5.05L89.8,92.43h0L78.47,99.11A5.66,5.66,0,0,1,72.67,99.17Z"/><path class="cls-2" d="M56,46l-.76-.43-6.19-3.48a5.68,5.68,0,0,1-2.58-3l7.87-6.67a5.66,5.66,0,0,0,2.95,4.79l2,1.13h0l2,1.13a5.65,5.65,0,0,0,5.51.1Z"/><path class="cls-3" d="M46.78,80.59l-2.12,1.25-7.48,4.42a5.67,5.67,0,0,1-5.8.06l-1.58-.89-.1-9.54,1.58.89a5.67,5.67,0,0,0,5.8-.06l3.36-2,3.36-2a5.67,5.67,0,0,0,2.85-5.05Z"/><path class="cls-4" d="M75,44.36l10.21,5.76h0l7.3,4.12a6,6,0,0,1,1.2.88L98.35,48l-9.06-5.11h0l-4.07-2.3a5.66,5.66,0,0,1-3-5v1.07a5.67,5.67,0,0,1-2.85,5.05Z"/></svg>