<svg id="Layer_1" data-name="Layer 1" xmlns="http://www.w3.org/2000/svg" viewBox="0 0 551.42 220.49"><defs><style>.cls-1{fill:#ffcb21;}.cls-2,.cls-3{fill:#fffaf2;}.cls-2{fill-rule:evenodd;}.cls-4,.cls-5{fill:#ffcc26;}.cls-4{stroke:#ffcc26;stroke-miterlimit:10;stroke-width:3px;}</style></defs><title>Plan de travail 2</title><path class="cls-1" d="M509.59,158.44a3.1,3.1,0,0,1-.44-6.16c8.33-1.21,16.09-6.84,17.29-12.55s-4.08-10.29-8.72-13.2l-29.15-16.83A3.09,3.09,0,0,1,487,107V73.29a3.1,3.1,0,0,1,1.55-2.68l29.2-16.86a3.1,3.1,0,0,1,3.1,0l29.2,16.86a3.1,3.1,0,0,1,1.55,2.68V107a3.1,3.1,0,0,1-1.55,2.68l-14.6,8.43a3.1,3.1,0,1,1-3.1-5.37l13-7.54V75.08L519.31,60l-26.1,15.07v30.14l27.65,16,.09.06c11.47,7.17,12.61,14.7,11.55,19.75-2,9.48-13.06,16-22.46,17.41A2.94,2.94,0,0,1,509.59,158.44Z"/><path class="cls-2" d="M520.86,74.67l5.54,3.2,5.54,3.2a3,3,0,0,1,1.55,2.68V96.55a3,3,0,0,1-1.55,2.68l-5.54,3.2-5.54,3.2a3,3,0,0,1-3.1,0l-5.54-3.2-5.54-3.2a3,3,0,0,1-1.55-2.68V83.75a3,3,0,0,1,1.55-2.68l5.54-3.2,5.54-3.2A3,3,0,0,1,520.86,74.67Z"/><path class="cls-3" d="M477.1,69.23a3.07,3.07,0,0,1-1.43-.35c-5.71-3-44.58-33.23-38.4-52.57,1.62-5.08,5.12-8,9.84-8.27,13.39-.65,32.8,20.89,46.18,51.34a3.1,3.1,0,0,1-5.67,2.49c-14.73-33.54-32.39-48.1-40.18-47.64-1.31.07-3.17.55-4.26,4-4.3,13.45,28.26,41.49,35.36,45.19a3.1,3.1,0,0,1-1.43,5.84Z"/><path class="cls-3" d="M465.11,79.28c-15.5,0-43.62-1.91-48.43-15.46-2.41-6.79.47-10.56,2.41-12.2,9.1-7.71,35.35-1.71,65.33,14.92a3.1,3.1,0,0,1-3,5.42c-33.79-18.74-53.7-19.52-58.32-15.61-.52.44-1.91,1.62-.57,5.4,3.6,10.13,33.8,12.17,52,11.08a3.06,3.06,0,0,1,3.28,2.9,3.1,3.1,0,0,1-2.9,3.28C473.62,79.09,470,79.28,465.11,79.28Z"/><path class="cls-4" d="M92.46,138.36a12.85,12.85,0,0,1,2.36-.63,11.89,11.89,0,0,1,1.78-.17q1.26,0,1.27.35,0,.58-1.73,1.38a42.35,42.35,0,0,1-12.82,4.08q-6.61,1-13.4,1.44a38.15,38.15,0,0,1-6.38,5.69,44.21,44.21,0,0,1-7.76,4.43,47.49,47.49,0,0,1-8.62,2.88,39.75,39.75,0,0,1-9,1,25,25,0,0,1-2.87-.17,15.9,15.9,0,0,1-2.82-.57,5.37,5.37,0,0,1-2.13-1.15,2.48,2.48,0,0,1-.81-1.9,6.34,6.34,0,0,1,2.93-5.17,26.3,26.3,0,0,1,7-3.62,63.34,63.34,0,0,1,8.28-2.3q4.2-.86,6.73-1.21,2.76-.35,5.69-.52t5.92-.4a29.33,29.33,0,0,0,3.39-7.07,24.35,24.35,0,0,0,1.21-7.53,20.8,20.8,0,0,0-2.87-11,24.7,24.7,0,0,0-7.3-7.71A33.34,33.34,0,0,0,50.72,104a39.23,39.23,0,0,0-10.47-1.5q-1.61,0-3.28.12t-3.28.35q-.92,5.87-2,12.3t-2.42,13q-1.38,6.56-3.28,12.94a86.87,86.87,0,0,1-4.66,12.25,3.15,3.15,0,0,1-1.73,1.44,5.93,5.93,0,0,1-2.19.52c-.38,0-.57-.12-.57-.34l.11-.23a47.51,47.51,0,0,0,2.82-7.07q1.44-4.43,2.7-9.83t2.36-11.33Q26,120.65,26.69,115q.92-7.36,1.67-14.2t1.38-13.57q.63-6.73,1.15-13.63t1-14.26q-1.72-.46-4.77-1.21t-6-1.55q-2.93-.8-5.12-1.5t-2.19-1q0-.92,1.67-1.72a7.11,7.11,0,0,1,3-.8h.58q6.9,1.61,13.74,3.61t13.4,4.65q3.22,1.38,7.07,3.1A44.7,44.7,0,0,1,60.55,67a24.31,24.31,0,0,1,5.63,5.33,11.15,11.15,0,0,1,2.24,6.88,11.28,11.28,0,0,1-2,6.42,22.89,22.89,0,0,1-5.29,5.45,44.16,44.16,0,0,1-7.3,4.42q-4,2-8.05,3.44A47.64,47.64,0,0,1,57,101,33.86,33.86,0,0,1,67,106a25.66,25.66,0,0,1,7.3,8.36,24.32,24.32,0,0,1,2.82,12A25.76,25.76,0,0,1,76,134.2a28.81,28.81,0,0,1-3.51,7.26q5.17-.34,10.23-.92A46.29,46.29,0,0,0,92.46,138.36ZM49,154.36a32.59,32.59,0,0,0,7.71-3.7,38.73,38.73,0,0,0,6.78-5.52l-7.13.68q-2.19.34-6.1.85a65.45,65.45,0,0,0-7.7,1.48,30.37,30.37,0,0,0-6.61,2.45q-2.82,1.48-2.82,3.53t5.29,2.16a29.32,29.32,0,0,0,4.77-.45A40.08,40.08,0,0,0,49,154.36Zm8-82.7a48.49,48.49,0,0,0-8.85-5.81,98.23,98.23,0,0,0-10-4.43Q37.5,71,36.58,80.35t-2.3,18.8q3.45-1,8.22-2.93a66.47,66.47,0,0,0,9.08-4.43,36.29,36.29,0,0,0,7.36-5.58,9.12,9.12,0,0,0,3-6.5Q62,75.81,57,71.66Z"/><path class="cls-4" d="M135.93,132.49a.78.78,0,0,1,.58-.23,1.41,1.41,0,0,1,.92.4,1.09,1.09,0,0,1,.46.75c0,.15,0,.23-.12.23a77.92,77.92,0,0,1-6,5.06,74.09,74.09,0,0,1-7.76,5.23,52.56,52.56,0,0,1-8.8,4.14,26.52,26.52,0,0,1-9.08,1.67,12.07,12.07,0,0,1-6.5-1.55,11.88,11.88,0,0,1-3.79-3.62,12.85,12.85,0,0,1-1.78-4.14,31.56,31.56,0,0,1-.58-3.1,10.36,10.36,0,0,1-.11-1.84,22.84,22.84,0,0,1,1.49-8.34,27.41,27.41,0,0,1,3.74-6.79,18.92,18.92,0,0,1,4.89-4.6,9.4,9.4,0,0,1,4.95-1.67,4.83,4.83,0,0,1,3.56,1.27,4.37,4.37,0,0,1,1.26,3.22,12,12,0,0,1-2.07,5.87,22.51,22.51,0,0,1-2.76,3.28q-2,2-4,4t-3.56,3.39q-1.55,1.44-1.55,1.67a8.73,8.73,0,0,0,.52,2.7,11.13,11.13,0,0,0,1.55,3,8.85,8.85,0,0,0,2.65,2.42,7.39,7.39,0,0,0,3.91,1,24.46,24.46,0,0,0,7.76-1.32,46.62,46.62,0,0,0,7.65-3.33,66.57,66.57,0,0,0,7-4.37Q133.63,134.45,135.93,132.49Zm-26.45-14.26a2.18,2.18,0,0,0-1.61-.58,4.16,4.16,0,0,0-2.87,1.15,12.87,12.87,0,0,0-2.24,2.7,21.42,21.42,0,0,0-1.67,3.22q-.69,1.67-1,2.59a9.46,9.46,0,0,0-.75,3q-.17,1.72-.29,3.33a43.31,43.31,0,0,0,3.56-3.51q1.84-2,3.45-3.74a11.92,11.92,0,0,0,1.09-1.32,18.16,18.16,0,0,0,1.21-1.9q.57-1,1-2.07a4.64,4.64,0,0,0,.46-1.84A1.41,1.41,0,0,0,109.48,118.23Z"/><path class="cls-4" d="M174.8,132.49a.78.78,0,0,1,.58-.23,1.41,1.41,0,0,1,.92.4,1.09,1.09,0,0,1,.46.75c0,.15,0,.23-.12.23a77.92,77.92,0,0,1-6,5.06,74.09,74.09,0,0,1-7.76,5.23,52.56,52.56,0,0,1-8.8,4.14,26.52,26.52,0,0,1-9.08,1.67,12.07,12.07,0,0,1-6.5-1.55,11.88,11.88,0,0,1-3.79-3.62,12.85,12.85,0,0,1-1.78-4.14,31.56,31.56,0,0,1-.58-3.1,10.36,10.36,0,0,1-.11-1.84,22.84,22.84,0,0,1,1.49-8.34,27.41,27.41,0,0,1,3.74-6.79,18.92,18.92,0,0,1,4.89-4.6,9.4,9.4,0,0,1,4.95-1.67,4.83,4.83,0,0,1,3.56,1.27,4.37,4.37,0,0,1,1.26,3.22,12,12,0,0,1-2.07,5.87,22.51,22.51,0,0,1-2.76,3.28q-2,2-4,4t-3.56,3.39q-1.55,1.44-1.55,1.67a8.73,8.73,0,0,0,.52,2.7,11.13,11.13,0,0,0,1.55,3,8.85,8.85,0,0,0,2.65,2.42,7.39,7.39,0,0,0,3.91,1,24.46,24.46,0,0,0,7.76-1.32,46.62,46.62,0,0,0,7.65-3.33,66.57,66.57,0,0,0,7-4.37Q172.5,134.45,174.8,132.49Zm-26.45-14.26a2.18,2.18,0,0,0-1.61-.58,4.16,4.16,0,0,0-2.87,1.15,12.87,12.87,0,0,0-2.24,2.7,21.42,21.42,0,0,0-1.67,3.22q-.69,1.67-1,2.59a9.46,9.46,0,0,0-.75,3q-.17,1.72-.29,3.33a43.31,43.31,0,0,0,3.56-3.51q1.84-2,3.45-3.74a11.92,11.92,0,0,0,1.09-1.32,18.16,18.16,0,0,0,1.21-1.9q.57-1,1-2.07a4.64,4.64,0,0,0,.46-1.84A1.41,1.41,0,0,0,148.35,118.23Z"/><path class="cls-4" d="M310.73,89.25a5.14,5.14,0,0,1,2.53-.58q2,0,2,1,0,.69-1.44,1.61a34.55,34.55,0,0,1-3.74,2q-2.3,1.1-5.17,2.19t-5.63,2.07q-2.76,1-5.29,1.78l-4,1.26q-1.38,9.32-2.76,18.29a120.89,120.89,0,0,0-1.38,18.4q0,3.34.06,7.42a76,76,0,0,0,.58,8.28,54.76,54.76,0,0,0,1.61,8.11,21.27,21.27,0,0,0,3.16,6.79,2.06,2.06,0,0,1,.35,1,1.48,1.48,0,0,1-.86,1.38,4,4,0,0,1-1.9.46,3.87,3.87,0,0,1-1.32-.23,1.85,1.85,0,0,1-1-.81,26,26,0,0,1-3.28-6.61,53.55,53.55,0,0,1-1.9-7.47,58.77,58.77,0,0,1-.86-7.71q-.17-3.85-.17-7.3a187.67,187.67,0,0,1,1-19.26q1-9.49,2.59-18.8l-17.13,5.23a145.75,145.75,0,0,0-16.79,6.27l-.63.23-.52.23q-.58,2.65-1.5,7t-2.41,9.37a91.74,91.74,0,0,1-3.74,10.18,42.88,42.88,0,0,1-5.46,9.32,28.53,28.53,0,0,1-7.48,6.78,18.14,18.14,0,0,1-9.77,2.65q-5.52,0-8.34-3.11a10,10,0,0,1-2.82-6.9,18.19,18.19,0,0,1,2.53-8.74,53.16,53.16,0,0,1,6.1-8.8,77,77,0,0,1,7.36-7.59,52.32,52.32,0,0,1,6.32-5q3.56-2.3,7.25-4.25t7.36-3.57q1.84-8.62,3-16.5t2-15.52q.86-7.65,1.67-15.3T253,48.77a17.6,17.6,0,0,1,3.22-2.13,3.2,3.2,0,0,1,1.38-.4c.46,0,.69.27.69.8v.34q-2.41,15.3-4.08,31t-4.43,31.22A175.65,175.65,0,0,1,266.92,104q8.74-2.36,17.48-5,1.61-9.08,3.68-18.11t4.37-18.34q1.15-.8,2.18-1.5t1.84-1a3.58,3.58,0,0,1,1.49-.46c.3,0,.46.19.46.58v.34q-2.3,9.09-4.31,18.23t-3.62,18.46q5.17-1.61,10.29-3.56T310.73,89.25Zm-73.37,48.19q1.72-4.49,3.16-9.66t2.59-10.58a84.44,84.44,0,0,0-10.06,5.92,47.16,47.16,0,0,0-8.8,7.88q-1.61,1.73-3.39,3.91t-3.39,4.54a26.31,26.31,0,0,0-2.65,4.89,13.29,13.29,0,0,0-1,5.06q0,3.33,1.73,4.77a6.1,6.1,0,0,0,4,1.44,11.64,11.64,0,0,0,6.79-2.07,23.16,23.16,0,0,0,5.23-5,32.3,32.3,0,0,0,3.68-6Q236.67,139.39,237.36,137.44Z"/><path class="cls-4" d="M362.14,134.45a3.14,3.14,0,0,1,1.44-.8,6.46,6.46,0,0,1,1.67-.23q1.26,0,1.27.69a1.88,1.88,0,0,1-.69,1.15q-2.3,2.19-6,5.12a80.25,80.25,0,0,1-7.88,5.52,61.26,61.26,0,0,1-8.45,4.37,20.44,20.44,0,0,1-7.82,1.78,8.31,8.31,0,0,1-4.95-1.32,8.94,8.94,0,0,1-2.87-3.51,16.18,16.18,0,0,1-1.38-4.94,44.58,44.58,0,0,1-.34-5.52q-.92.69-3.39,2.76a66,66,0,0,1-5.75,4.25,59.5,59.5,0,0,1-6.79,3.91,14.49,14.49,0,0,1-6.27,1.73,5.32,5.32,0,0,1-3.91-1.61,6.38,6.38,0,0,1-1.61-4.71,17.85,17.85,0,0,1,2.82-8.86,45.8,45.8,0,0,1,7-9.08,44.18,44.18,0,0,1,9-7.07,17.56,17.56,0,0,1,8.8-2.82,6.9,6.9,0,0,1,5.87,2.76,13.32,13.32,0,0,1,1.32-2.42,3.27,3.27,0,0,1,2.93-1.5,2.42,2.42,0,0,1,2,.69,23.58,23.58,0,0,1-1.26,3.69q-1,2.54-2.19,5.77t-2.07,6.69a24.83,24.83,0,0,0-.92,6.35q0,6.23,2,8.71a6.31,6.31,0,0,0,5.12,2.48,14.24,14.24,0,0,0,6-1.55,48.74,48.74,0,0,0,6.5-3.74,74.75,74.75,0,0,0,6.1-4.6Q360.3,136.17,362.14,134.45ZM315.68,140q1.38-1,3.51-2.87a33.28,33.28,0,0,0,4.08-4.25,43.64,43.64,0,0,0,3.56-5.12,14,14,0,0,0,2-5.46q-1.5-3.68-4.71-3.68-3,0-6.38,2.7a35.47,35.47,0,0,0-6.21,6.44,45.14,45.14,0,0,0-4.72,7.71,15.92,15.92,0,0,0-1.9,6.38q0,2.41,2.07,2.42a8.79,8.79,0,0,0,3.39-1A34.72,34.72,0,0,0,315.68,140Z"/><path class="cls-4" d="M401.12,120.86a9.49,9.49,0,0,1,.35,2.52,12.47,12.47,0,0,1-1,4.7,24.25,24.25,0,0,1-2.47,4.58,27.75,27.75,0,0,1-3.28,4,34.43,34.43,0,0,1-3.28,2.92,46.9,46.9,0,0,1-10.52,5.9,31.1,31.1,0,0,1-11.67,2.23c-.61,0-1.17,0-1.67-.06s-1.05-.09-1.67-.17q-1.73,12.53-4.14,24.67t-5.63,24a2.37,2.37,0,0,1-1.44,1.5,5.7,5.7,0,0,1-2.47.58c-1.22,0-1.84-.38-1.84-1.15a.23.23,0,0,1,.06-.17.23.23,0,0,0,.06-.17q5.75-20.93,9.32-41.69a349,349,0,0,0,4.6-42.38,20.7,20.7,0,0,1,1.84-1.84l1.55-1.32a2.16,2.16,0,0,1,1.21-.63c.31,0,.46.19.46.58a122.4,122.4,0,0,1-.69,12.94q-.69,6.5-1.38,12.94a67.12,67.12,0,0,1,5.86-6.69,62.08,62.08,0,0,1,7.25-6.29,50.5,50.5,0,0,1,7.48-4.63,15.22,15.22,0,0,1,6.67-1.83,6.36,6.36,0,0,1,3.91,1.2A7.86,7.86,0,0,1,401.12,120.86ZM395,124.44a4.7,4.7,0,0,0-.86-3.22,2.93,2.93,0,0,0-2.24-.92,9.13,9.13,0,0,0-3.79,1,33.63,33.63,0,0,0-4.26,2.42,44.7,44.7,0,0,0-3.79,2.82q-1.72,1.44-2.53,2.24-3,3-6.15,6.73a29.7,29.7,0,0,0-4.77,7.53.33.33,0,0,1-.11.23v.12c-.08,0-.12.12-.12.34s.15.25.46.29a8.24,8.24,0,0,0,1,.06,22,22,0,0,0,4.83-.63,38.09,38.09,0,0,0,5.75-1.84,46,46,0,0,0,5.86-2.87,30.85,30.85,0,0,0,5.18-3.74,20.74,20.74,0,0,0,3.79-4.49,11.42,11.42,0,0,0,1.72-5.06Z"/><path class="cls-4" d="M447.23,120.86a9.49,9.49,0,0,1,.35,2.52,12.47,12.47,0,0,1-1,4.7,24.25,24.25,0,0,1-2.47,4.58,27.75,27.75,0,0,1-3.28,4,34.43,34.43,0,0,1-3.28,2.92,46.9,46.9,0,0,1-10.52,5.9,31.1,31.1,0,0,1-11.67,2.23c-.61,0-1.17,0-1.67-.06s-1.05-.09-1.67-.17q-1.73,12.53-4.14,24.67t-5.63,24a2.37,2.37,0,0,1-1.44,1.5,5.7,5.7,0,0,1-2.47.58c-1.22,0-1.84-.38-1.84-1.15a.23.23,0,0,1,.06-.17.23.23,0,0,0,.06-.17q5.75-20.93,9.32-41.69a349,349,0,0,0,4.6-42.38,20.7,20.7,0,0,1,1.84-1.84l1.55-1.32a2.16,2.16,0,0,1,1.21-.63c.31,0,.46.19.46.58a122.4,122.4,0,0,1-.69,12.94q-.69,6.5-1.38,12.94a67.12,67.12,0,0,1,5.86-6.69,62.08,62.08,0,0,1,7.25-6.29,50.5,50.5,0,0,1,7.48-4.63,15.22,15.22,0,0,1,6.67-1.83,6.36,6.36,0,0,1,3.91,1.2A7.86,7.86,0,0,1,447.23,120.86Zm-6.09,3.58a4.7,4.7,0,0,0-.86-3.22,2.93,2.93,0,0,0-2.24-.92,9.13,9.13,0,0,0-3.79,1,33.63,33.63,0,0,0-4.26,2.42,44.7,44.7,0,0,0-3.79,2.82q-1.72,1.44-2.53,2.24-3,3-6.15,6.73a29.7,29.7,0,0,0-4.77,7.53.33.33,0,0,1-.11.23v.12c-.08,0-.12.12-.12.34s.15.25.46.29a8.24,8.24,0,0,0,1,.06,22,22,0,0,0,4.83-.63,38.09,38.09,0,0,0,5.75-1.84,46,46,0,0,0,5.86-2.87,30.85,30.85,0,0,0,5.18-3.74,20.74,20.74,0,0,0,3.79-4.49,11.42,11.42,0,0,0,1.72-5.06Z"/><path class="cls-4" d="M480.51,158.44q.58-6.45,1-12.18T482,134.6a66.27,66.27,0,0,1-4.53,7.29,49,49,0,0,1-5,6,27.91,27.91,0,0,1-5.21,4.19A13.06,13.06,0,0,1,462.1,154q-3.65.46-5.37-1.7a11.67,11.67,0,0,1-2.19-5.92,40.41,40.41,0,0,1-.22-6.7q.16-3.73.62-7.73t1-8.06q.51-4.06.73-7.8.14-.71,1.4-1.28a8.54,8.54,0,0,1,2.4-.71q1.37-.17,1.44.4-.43,4-.93,8.29t-.86,8.4q-.35,4.1-.42,7.7a43.48,43.48,0,0,0,.25,6.11,13.27,13.27,0,0,0,1,4.05,1.71,1.71,0,0,0,1.87,1,4.85,4.85,0,0,0,2.94-1.47q1.56-1.41,2.7-2.48a44.45,44.45,0,0,0,7.81-9.79,70.27,70.27,0,0,0,3.77-7.83,49.33,49.33,0,0,1,2.4-5.34,4.82,4.82,0,0,1,3.93-2.35q1-.13,1.1.44-.45,4.69-.72,13.13c-.18,5.63-1.81,12.33-2.21,19"/><path class="cls-5" d="M472.37,212.08a14.25,14.25,0,0,1-9.06-.6c-5.17-2.11-9.59-7.53-7.09-14.44,2.79-7.7,10.56-17.59,21.41-26.61,1.17-13.2,2.06-27.07,2.61-35.77l.25-3.85c.11-1.74,1.93-3.24,4-3.35s3.75,1.21,3.64,3l-.25,3.85c-.74,11.58-1.45,21.5-2.13,30a112,112,0,0,1,20.62-11.31c2-.82,4.21-.24,5,1.3s-.19,3.45-2.17,4.27a105.55,105.55,0,0,0-24.16,14.16c-2.2,24.07-4.39,33.94-7.54,36.68A12.93,12.93,0,0,1,472.37,212.08Zm4.36-32.14c-6.58,6.43-11.23,12.94-13.15,18.24-1.25,3.45,1,6.43,3.78,7.58a4.7,4.7,0,0,0,4.75-.35C473.87,202.93,475.44,192.48,476.73,179.94Z"/></svg>